<svg xmlns="http://www.w3.org/2000/svg" xmlns:se="http://svg-edit.googlecode.com" xmlns:xlink="http://www.w3.org/1999/xlink" xmlns:dc="http://purl.org/dc/elements/1.1/" xmlns:cc="http://creativecommons.org/ns#" xmlns:rdf="http://www.w3.org/1999/02/22-rdf-syntax-ns#" xmlns:inkscape="http://www.inkscape.org/namespaces/inkscape" width="434.48602294921875" height="478.1173095703125" style="">
    <rect id="backgroundrect" width="100%" height="100%" x="0" y="0" fill="#FFFFFF" stroke="none" class="" style=""/>
    <g style="" class="currentLayer">
        <title>Layer 1</title>
        <rect fill="#4d4d4d" stroke="#000000" stroke-dashoffset="" fill-rule="nonzero" id="svg_1" x="46.72066116333008" y="25.32402229309082" width="15.715084075927734" height="444.3966369628906" style="color: rgb(0, 0, 0);" class="" rx="1" ry="1" fill-opacity="1"/>
        <rect fill="#4d4d4d" stroke="#000000" stroke-dashoffset="" fill-rule="nonzero" id="svg_3" x="15.681560516357422" y="49.558658599853516" width="345" height="8" style="color: rgb(77, 77, 77);" class=""/>
        <rect fill="#4d4d4d" stroke="#000000" stroke-dashoffset="" fill-rule="nonzero" id="svg_5" x="29.91061782836914" y="464.6976623535156" width="373.5474853515625" height="5.654292106628418" style="color: rgb(77, 77, 77);" class="" rx="3" ry="3"/>
        <rect fill="#4d4d4d" stroke="#000000" stroke-dashoffset="" fill-rule="nonzero" id="svg_10" x="94.68155670166016" y="98.55866241455078" width="0" height="1" style="color: rgb(77, 77, 77);" class=""/>
        <rect fill="#4d4d4d" stroke="#000000" stroke-dashoffset="" fill-rule="nonzero" id="svg_4" x="14.046241760253906" y="81.6697998046875" width="134.76536560058594" height="7.058116912841797" style="color: rgb(77, 77, 77);" class="" transform="rotate(-43.176944732666016 81.42891693115237,85.19886016845703) "/>
        <rect fill="#4d4d4d" stroke="#000000" stroke-dashoffset="" fill-rule="nonzero" id="svg_2" x="296.6815490722656" y="56.558658599853516" width="1" height="0" style="color: rgb(77, 77, 77);" class=""/>
    <rect fill="#4d4d4d" stroke="#000000" stroke-dashoffset="" fill-rule="nonzero" id="svg_6" x="299" y="57.67597579956055" width="3" height="51" style="color: rgb(0, 0, 0);" class=""/><rect fill="#4d4d4d" stroke="#000000" stroke-dashoffset="" fill-rule="nonzero" id="svg_8" x="299" y="95" width="0" height="5" style="color: rgb(0, 0, 0);" class=""/><path fill="#ffffff" fill-opacity="1" stroke="#242424" stroke-opacity="1" stroke-width="5" stroke-dasharray="none" stroke-linejoin="miter" stroke-linecap="butt" stroke-dashoffset="" fill-rule="nonzero" opacity="1" marker-start="" marker-mid="" marker-end="" d="M266.8826814889908,144.53072613477707 C266.8826814889908,126.29868193588203 282.0981511022504,111.53072613477707 300.8826814889908,111.53072613477707 C319.66721187573114,111.53072613477707 334.8826814889908,126.29868193588203 334.8826814889908,144.53072613477707 C334.8826814889908,162.7627703336721 319.66721187573114,177.53072613477707 300.8826814889908,177.53072613477707 C282.0981511022504,177.53072613477707 266.8826814889908,162.7627703336721 266.8826814889908,144.53072613477707 z" id="svg_7" class="" filter=""/><path fill="#ffffff" fill-opacity="1" stroke="#242424" stroke-opacity="1" stroke-width="1" stroke-dasharray="none" stroke-linejoin="miter" stroke-linecap="butt" stroke-dashoffset="" fill-rule="nonzero" opacity="1" marker-start="" marker-mid="" marker-end="" d="M284.18436184177096,135.4329589097008 C284.18436184177096,130.77695098213744 286.74444050645627,127.00558456081129 289.9050314505123,127.00558456081129 C293.06562239456827,127.00558456081129 295.6257010592536,130.77695098213744 295.6257010592536,135.4329589097008 C295.6257010592536,140.08896683726397 293.06562239456827,143.8603332585902 289.9050314505123,143.8603332585902 C286.74444050645627,143.8603332585902 284.18436184177096,140.08896683726397 284.18436184177096,135.4329589097008 z" id="svg_12" class=""/><path fill="#ffffff" fill-opacity="1" stroke="#242424" stroke-opacity="1" stroke-width="1" stroke-dasharray="none" stroke-linejoin="miter" stroke-linecap="butt" stroke-dashoffset="" fill-rule="nonzero" opacity="1" marker-start="" marker-mid="" marker-end="" d="M305.86033954868014,135.32122829496166 C305.86033954868014,130.66521987851374 308.42041821336545,126.89385306119107 311.5810091574215,126.89385306119107 C314.74160010147745,126.89385306119107 317.30167876616275,130.66521987851374 317.30167876616275,135.32122829496166 C317.30167876616275,139.97723671140938 314.74160010147745,143.7486035287321 311.5810091574215,143.7486035287321 C308.42041821336545,143.7486035287321 305.86033954868014,139.97723671140938 305.86033954868014,135.32122829496166 z" class="" id="svg_18"/><path fill="#b6b6b6" fill-opacity="1" stroke="#242424" stroke-opacity="1" stroke-width="1" stroke-dasharray="none" stroke-linejoin="miter" stroke-linecap="butt" stroke-dashoffset="" fill-rule="nonzero" opacity="1" marker-start="" marker-mid="" marker-end="" d="M307.7430273798341,133.2094802924672 C307.7430273798341,129.70782906306133 309.4605796380912,126.87149156724263 311.5810145248285,126.87149156724263 C313.7014494115657,126.87149156724263 315.4190016698228,129.70782906306133 315.4190016698228,133.2094802924672 C315.4190016698228,136.7111315218732 313.7014494115657,139.54746901769184 311.5810145248285,139.54746901769184 C309.4605796380912,139.54746901769184 307.7430273798341,136.7111315218732 307.7430273798341,133.2094802924672 z" id="svg_13" class=""/><path fill="#b6b6b6" fill-opacity="1" stroke="#242424" stroke-opacity="1" stroke-width="1" stroke-dasharray="none" stroke-linejoin="miter" stroke-linecap="butt" stroke-dashoffset="" fill-rule="nonzero" opacity="1" marker-start="" marker-mid="" marker-end="" d="M285.843582555382,133.37707792003994 C285.843582555382,130.02975092356593 287.68613987574423,127.31841605642194 289.96090199964846,127.31841605642194 C292.2356641235525,127.31841605642194 294.0782214439148,130.02975092356593 294.0782214439148,133.37707792003994 C294.0782214439148,136.72440491651412 292.2356641235525,139.435739783658 289.96090199964846,139.435739783658 C287.68613987574423,139.435739783658 285.843582555382,136.72440491651412 285.843582555382,133.37707792003994 z" class="" id="svg_19"/><path fill="#ffffff" fill-opacity="1" stroke="#242424" stroke-opacity="1" stroke-width="1.5" stroke-dasharray="none" stroke-linejoin="miter" stroke-linecap="butt" stroke-dashoffset="" fill-rule="nonzero" opacity="1" marker-start="" marker-mid="" marker-end="" d="M294.5139693617821,160.90502656344412 C294.5139693617821,157.88332939789365 297.4228091407876,155.43575469379778 301.0139693617821,155.43575469379778 C304.60512958277656,155.43575469379778 307.5139693617821,157.88332939789365 307.5139693617821,160.90502656344412 C307.5139693617821,163.92672372899466 304.60512958277656,166.37429843309042 301.0139693617821,166.37429843309042 C297.4228091407876,166.37429843309042 294.5139693617821,163.92672372899466 294.5139693617821,160.90502656344412 z" id="svg_20" class=""/><rect fill="#484848" stroke="#242424" stroke-width="3" stroke-dashoffset="" fill-rule="nonzero" id="svg_11" x="300" y="180" width="4" height="108" style="color: rgb(0, 0, 0);" class="" fill-opacity="1"/><path fill="#ffffff" fill-opacity="1" stroke="#242424" stroke-opacity="1" stroke-width="4" stroke-dasharray="none" stroke-linejoin="miter" stroke-linecap="butt" stroke-dashoffset="" fill-rule="nonzero" opacity="1" marker-start="" marker-mid="" marker-end="" d="M298.80727032333056,180.26145507329522 L247.65351790784393,209.3117342228308 " id="svg_14" class=""/><path fill="#ffffff" fill-opacity="1" stroke="#242424" stroke-opacity="1" stroke-width="4" stroke-dasharray="none" stroke-linejoin="miter" stroke-linecap="butt" stroke-dashoffset="" fill-rule="nonzero" opacity="1" marker-start="" marker-mid="" marker-end="" d="M355.1201179376189,181.2670408629757 L303.96636552213226,210.3173200125113 " class="" id="svg_17" transform="rotate(-117.95675659179688 329.54324340820307,195.79216003417963) "/><path fill="#ffffff" fill-opacity="1" stroke="#242424" stroke-opacity="1" stroke-width="4" stroke-dasharray="none" stroke-linejoin="miter" stroke-linecap="butt" stroke-dashoffset="" fill-rule="nonzero" opacity="1" marker-start="" marker-mid="" marker-end="" d="M299.92458195923115,288.0826872009598 L263.05307279356833,338.3620178814091 " id="svg_21" class=""/></g>
    <defs>
        
    <marker id="EmptyTriangleOutL" refX="0" refY="0" orient="auto" inkscape:stockid="EmptyTriangleOutL" overflow="visible">
            <path transform="scale(0.800000011920929) translate(-6,0) " d="M5.77 0l-8.65 5v-10l8.65 5z" fill-rule="evenodd" fill="#fff" stroke="#000" stroke-width="1pt" style="fill: rgb(36, 36, 36); stroke: rgb(36, 36, 36); stroke-dasharray: none;" id="svg_9"/>
        </marker></defs>
</svg>