<svg xmlns="http://www.w3.org/2000/svg" xmlns:se="http://svg-edit.googlecode.com" xmlns:xlink="http://www.w3.org/1999/xlink" xmlns:dc="http://purl.org/dc/elements/1.1/" xmlns:cc="http://creativecommons.org/ns#" xmlns:rdf="http://www.w3.org/1999/02/22-rdf-syntax-ns#" xmlns:inkscape="http://www.inkscape.org/namespaces/inkscape" width="434.48602294921875" height="478.1173095703125">
    <rect id="backgroundrect" width="100%" height="100%" x="0" y="0" fill="#FFFFFF" stroke="none" class="" style=""/>
    <g style="" class="currentLayer">
        <title>Layer 1</title>
        <rect fill="#4d4d4d" stroke="#000000" stroke-dashoffset="" fill-rule="nonzero" id="svg_1" x="46.72066116333008" y="25.32402229309082" width="15.715084075927734" height="444.3966369628906" style="color: rgb(0, 0, 0);" class="" rx="1" ry="1" fill-opacity="1"/>
        <rect fill="#4d4d4d" stroke="#000000" stroke-dashoffset="" fill-rule="nonzero" id="svg_3" x="15.681560516357422" y="49.558658599853516" width="345" height="8" style="color: rgb(77, 77, 77);" class=""/>
        <rect fill="#4d4d4d" stroke="#000000" stroke-dashoffset="" fill-rule="nonzero" id="svg_5" x="29.91061782836914" y="464.6976623535156" width="373.5474853515625" height="5.654292106628418" style="color: rgb(77, 77, 77);" class="" rx="3" ry="3"/>
        <rect fill="#4d4d4d" stroke="#000000" stroke-dashoffset="" fill-rule="nonzero" id="svg_10" x="94.68155670166016" y="98.55866241455078" width="0" height="1" style="color: rgb(77, 77, 77);" class=""/>
        <rect fill="#4d4d4d" stroke="#000000" stroke-dashoffset="" fill-rule="nonzero" id="svg_4" x="14.046241760253906" y="81.6697998046875" width="134.76536560058594" height="7.058116912841797" style="color: rgb(77, 77, 77);" class="" transform="rotate(-43.176944732666016 81.42891693115237,85.19886016845703) "/>
        <rect fill="#4d4d4d" stroke="#000000" stroke-dashoffset="" fill-rule="nonzero" id="svg_2" x="296.6815490722656" y="56.558658599853516" width="1" height="0" style="color: rgb(77, 77, 77);" class=""/>
    <rect fill="#4d4d4d" stroke="#000000" stroke-dashoffset="" fill-rule="nonzero" id="svg_6" x="299" y="57.67597579956055" width="3" height="51" style="color: rgb(0, 0, 0);" class=""/><rect fill="#4d4d4d" stroke="#000000" stroke-dashoffset="" fill-rule="nonzero" id="svg_8" x="299" y="95" width="0" height="5" style="color: rgb(0, 0, 0);" class=""/><path fill="#ffffff" fill-opacity="1" stroke="#242424" stroke-opacity="1" stroke-width="5" stroke-dasharray="none" stroke-linejoin="miter" stroke-linecap="butt" stroke-dashoffset="" fill-rule="nonzero" opacity="1" marker-start="" marker-mid="" marker-end="" d="M266.8826814889908,144.53072613477707 C266.8826814889908,126.29868193588203 282.0981511022504,111.53072613477707 300.8826814889908,111.53072613477707 C319.66721187573114,111.53072613477707 334.8826814889908,126.29868193588203 334.8826814889908,144.53072613477707 C334.8826814889908,162.7627703336721 319.66721187573114,177.53072613477707 300.8826814889908,177.53072613477707 C282.0981511022504,177.53072613477707 266.8826814889908,162.7627703336721 266.8826814889908,144.53072613477707 z" id="svg_7" class="" filter=""/><path fill="#ffffff" fill-opacity="1" stroke="#242424" stroke-opacity="1" stroke-width="1" stroke-dasharray="none" stroke-linejoin="miter" stroke-linecap="butt" stroke-dashoffset="" fill-rule="nonzero" opacity="1" marker-start="" marker-mid="" marker-end="" d="M284.18436184177096,136.27094828750663 C284.18436184177096,132.0779177494513 286.74444050645627,128.68156301362663 289.9050314505123,128.68156301362663 C293.06562239456827,128.68156301362663 295.6257010592536,132.0779177494513 295.6257010592536,136.27094828750663 C295.6257010592536,140.46397882556178 293.06562239456827,143.8603335613865 289.9050314505123,143.8603335613865 C286.74444050645627,143.8603335613865 284.18436184177096,140.46397882556178 284.18436184177096,136.27094828750663 z" id="svg_12" class=""/><path fill="#ffffff" fill-opacity="1" stroke="#242424" stroke-opacity="1" stroke-width="1" stroke-dasharray="none" stroke-linejoin="miter" stroke-linecap="butt" stroke-dashoffset="" fill-rule="nonzero" opacity="1" marker-start="" marker-mid="" marker-end="" d="M305.86033954868014,136.15921672836228 C305.86033954868014,131.9661857500354 308.42041821336545,128.56983065759076 311.5810091574215,128.56983065759076 C314.74160010147745,128.56983065759076 317.30167876616275,131.9661857500354 317.30167876616275,136.15921672836228 C317.30167876616275,140.35224770668898 314.74160010147745,143.7486027991337 311.5810091574215,143.7486027991337 C308.42041821336545,143.7486027991337 305.86033954868014,140.35224770668898 305.86033954868014,136.15921672836228 z" class="" id="svg_18"/><path fill="#b6b6b6" fill-opacity="1" stroke="#242424" stroke-opacity="1" stroke-width="1" stroke-dasharray="none" stroke-linejoin="miter" stroke-linecap="butt" stroke-dashoffset="" fill-rule="nonzero" opacity="1" marker-start="" marker-mid="" marker-end="" d="M308.3016843201752,137.1200943956787 C308.3016843201752,134.85304925145059 309.76922977817793,133.0167426846258 311.58101429423084,133.0167426846258 C313.3927988102837,133.0167426846258 314.86034426828644,134.85304925145059 314.86034426828644,137.1200943956787 C314.86034426828644,139.38713953990694 313.3927988102837,141.22344610673167 311.58101429423084,141.22344610673167 C309.76922977817793,141.22344610673167 308.3016843201752,139.38713953990694 308.3016843201752,137.1200943956787 z" id="svg_13" class=""/><path fill="#b6b6b6" fill-opacity="1" stroke="#242424" stroke-opacity="1" stroke-width="1" stroke-dasharray="none" stroke-linejoin="miter" stroke-linecap="butt" stroke-dashoffset="" fill-rule="nonzero" opacity="1" marker-start="" marker-mid="" marker-end="" d="M286.96090215464784,137.00836207419263 C286.96090215464784,134.74131585465614 288.4284476126506,132.90500841683155 290.2402321287035,132.90500841683155 C292.05201664475635,132.90500841683155 293.5195621027591,134.74131585465614 293.5195621027591,137.00836207419263 C293.5195621027591,139.27540829372927 292.05201664475635,141.1117157315538 290.2402321287035,141.1117157315538 C288.4284476126506,141.1117157315538 286.96090215464784,139.27540829372927 286.96090215464784,137.00836207419263 z" class="" id="svg_19"/><path fill="#ffffff" fill-opacity="1" stroke="#242424" stroke-opacity="1" stroke-width="1.5" stroke-dasharray="none" stroke-linejoin="miter" stroke-linecap="butt" stroke-dashoffset="" fill-rule="nonzero" opacity="1" marker-start="" marker-mid="" marker-end="" d="M294.5139694213867,159.22904858960013 C294.5139694213867,157.44195566607902 297.42280920039224,155.99441039802696 301.0139694213867,155.99441039802696 C304.6051296423812,155.99441039802696 307.5139694213867,157.44195566607902 307.5139694213867,159.22904858960013 C307.5139694213867,161.01614151312126 304.6051296423812,162.46368678117327 301.0139694213867,162.46368678117327 C297.42280920039224,162.46368678117327 294.5139694213867,161.01614151312126 294.5139694213867,159.22904858960013 z" id="svg_20" class=""/><rect fill="#484848" stroke="#242424" stroke-width="3" stroke-dashoffset="" fill-rule="nonzero" id="svg_11" x="300" y="180" width="4" height="108" style="color: rgb(0, 0, 0);" class="" fill-opacity="1"/><path fill="#ffffff" fill-opacity="1" stroke="#242424" stroke-opacity="1" stroke-width="4" stroke-dasharray="none" stroke-linejoin="miter" stroke-linecap="butt" stroke-dashoffset="" fill-rule="nonzero" opacity="1" marker-start="" marker-mid="" marker-end="" d="M298.80727032333056,180.26145507329522 L247.65351790784393,209.3117342228308 " id="svg_14" class=""/></g>
    <defs>
        
    <marker id="EmptyTriangleOutL" refX="0" refY="0" orient="auto" inkscape:stockid="EmptyTriangleOutL" overflow="visible">
            <path transform="scale(0.800000011920929) translate(-6,0) " d="M5.77 0l-8.65 5v-10l8.65 5z" fill-rule="evenodd" fill="#fff" stroke="#000" stroke-width="1pt" style="fill: rgb(36, 36, 36); stroke: rgb(36, 36, 36); stroke-dasharray: none;" id="svg_9"/>
        </marker></defs>
</svg>