<svg xmlns="http://www.w3.org/2000/svg" xmlns:se="http://svg-edit.googlecode.com" xmlns:xlink="http://www.w3.org/1999/xlink" xmlns:dc="http://purl.org/dc/elements/1.1/" xmlns:cc="http://creativecommons.org/ns#" xmlns:rdf="http://www.w3.org/1999/02/22-rdf-syntax-ns#" xmlns:inkscape="http://www.inkscape.org/namespaces/inkscape" width="434.48602294921875" height="478.1173095703125" style="">
    <rect id="backgroundrect" width="100%" height="100%" x="0" y="0" fill="#FFFFFF" stroke="none" class="" style=""/>
    <g style="" class="currentLayer">
        <title>Layer 1</title>
        <rect fill="#4d4d4d" stroke="#000000" stroke-dashoffset="" fill-rule="nonzero" id="svg_1" x="46.72066116333008" y="25.32402229309082" width="15.715084075927734" height="444.3966369628906" style="color: rgb(0, 0, 0);" class="" rx="1" ry="1" fill-opacity="1"/>
        <rect fill="#4d4d4d" stroke="#000000" stroke-dashoffset="" fill-rule="nonzero" id="svg_3" x="15.681560516357422" y="49.558658599853516" width="345" height="8" style="color: rgb(77, 77, 77);" class=""/>
        <rect fill="#4d4d4d" stroke="#000000" stroke-dashoffset="" fill-rule="nonzero" id="svg_5" x="29.91061782836914" y="464.6976623535156" width="373.5474853515625" height="5.654292106628418" style="color: rgb(77, 77, 77);" class="" rx="3" ry="3"/>
        <rect fill="#4d4d4d" stroke="#000000" stroke-dashoffset="" fill-rule="nonzero" id="svg_10" x="94.68155670166016" y="98.55866241455078" width="0" height="1" style="color: rgb(77, 77, 77);" class=""/>
        <rect fill="#4d4d4d" stroke="#000000" stroke-dashoffset="" fill-rule="nonzero" id="svg_4" x="14.046241760253906" y="81.6697998046875" width="134.76536560058594" height="7.058116912841797" style="color: rgb(77, 77, 77);" class="" transform="rotate(-43.176944732666016 81.42891693115237,85.19886016845703) "/>
        <rect fill="#4d4d4d" stroke="#000000" stroke-dashoffset="" fill-rule="nonzero" id="svg_2" x="296.6815490722656" y="56.558658599853516" width="1" height="0" style="color: rgb(77, 77, 77);" class=""/>
    <rect fill="#4d4d4d" stroke="#000000" stroke-dashoffset="" fill-rule="nonzero" id="svg_6" x="299" y="57.67597579956055" width="3" height="51" style="color: rgb(0, 0, 0);" class=""/><rect fill="#4d4d4d" stroke="#000000" stroke-dashoffset="" fill-rule="nonzero" id="svg_8" x="299" y="95" width="0" height="5" style="color: rgb(0, 0, 0);" class=""/><path fill="#ffffff" fill-opacity="1" stroke="#242424" stroke-opacity="1" stroke-width="5" stroke-dasharray="none" stroke-linejoin="miter" stroke-linecap="butt" stroke-dashoffset="" fill-rule="nonzero" opacity="1" marker-start="" marker-mid="" marker-end="" d="M266.8826814889908,144.53072613477707 C266.8826814889908,126.29868193588203 282.0981511022504,111.53072613477707 300.8826814889908,111.53072613477707 C319.66721187573114,111.53072613477707 334.8826814889908,126.29868193588203 334.8826814889908,144.53072613477707 C334.8826814889908,162.7627703336721 319.66721187573114,177.53072613477707 300.8826814889908,177.53072613477707 C282.0981511022504,177.53072613477707 266.8826814889908,162.7627703336721 266.8826814889908,144.53072613477707 z" id="svg_7" class="" filter=""/><path fill="#ffffff" fill-opacity="1" stroke="#242424" stroke-opacity="1" stroke-width="1.5" stroke-dasharray="none" stroke-linejoin="miter" stroke-linecap="butt" stroke-dashoffset="" fill-rule="nonzero" opacity="1" marker-start="" marker-mid="" marker-end="" d="M293.955309115001,160.62569665983884 C293.955309115001,157.44967357117423 297.2391605603808,154.87709486935591 301.2932981472695,154.87709486935591 C305.34743573415824,154.87709486935591 308.63128717953805,157.44967357117423 308.63128717953805,160.62569665983884 C308.63128717953805,163.80171974850347 305.34743573415824,166.37429845032167 301.2932981472695,166.37429845032167 C297.2391605603808,166.37429845032167 293.955309115001,163.80171974850347 293.955309115001,160.62569665983884 z" id="svg_20" class=""/><rect fill="#484848" stroke="#242424" stroke-width="3" stroke-dashoffset="" fill-rule="nonzero" id="svg_11" x="300" y="180" width="4" height="108" style="color: rgb(0, 0, 0);" class="" fill-opacity="1"/><path fill="#ffffff" fill-opacity="1" stroke="#242424" stroke-opacity="1" stroke-width="4" stroke-dasharray="none" stroke-linejoin="miter" stroke-linecap="butt" stroke-dashoffset="" fill-rule="nonzero" opacity="1" marker-start="" marker-mid="" marker-end="" d="M298.80727032333056,180.26145507329522 L247.65351790784393,209.3117342228308 " id="svg_14" class=""/><path fill="#ffffff" fill-opacity="1" stroke="#242424" stroke-opacity="1" stroke-width="4" stroke-dasharray="none" stroke-linejoin="miter" stroke-linecap="butt" stroke-dashoffset="" fill-rule="nonzero" opacity="1" marker-start="" marker-mid="" marker-end="" d="M355.1201179376189,181.2670408629757 L303.96636552213226,210.3173200125113 " class="" id="svg_17" transform="rotate(-117.95675659179688 329.54324340820307,195.79216003417963) "/><path fill="#ffffff" fill-opacity="1" stroke="#242424" stroke-opacity="1" stroke-width="4" stroke-dasharray="none" stroke-linejoin="miter" stroke-linecap="butt" stroke-dashoffset="" fill-rule="nonzero" opacity="1" marker-start="" marker-mid="" marker-end="" d="M299.92458195923115,288.0826872009598 L263.05307279356833,338.3620178814091 " id="svg_21" class=""/><path fill="#ffffff" fill-opacity="1" stroke="#242424" stroke-opacity="1" stroke-width="4" stroke-dasharray="none" stroke-linejoin="miter" stroke-linecap="butt" stroke-dashoffset="" fill-rule="nonzero" opacity="1" marker-start="" marker-mid="" marker-end="" d="M340.0363149785831,287.97095430081714 L303.1648058129203,338.2502849812664 " class="" id="svg_15" transform="rotate(108.28797149658203 321.60058593749994,313.110595703125) "/><path fill="#6d6d6d" stroke="#242424" stroke-width="1" stroke-dashoffset="" fill-rule="nonzero" marker-start="" marker-mid="" marker-end="" id="svg_22" d="M281.298679103309,133.47921570960165 L286.6529809814545,133.47921570960165 L286.6529809814545,128.12491328905628 L292.1454783347758,128.12491328905628 L292.1454783347758,133.47921570960165 L297.4997807553207,133.47921570960165 L297.4997807553207,138.97171360532474 L292.1454783347758,138.97171360532474 L292.1454783347758,144.326015483469 L286.6529809814545,144.326015483469 L286.6529809814545,138.97171360532474 L281.298679103309,138.97171360532474 L281.298679103309,133.47921570960165 z" style="color: rgb(0, 0, 0);" class="" fill-opacity="1" transform="rotate(43.92290115356445 289.3992309570312,136.22546386718753) "/><path fill="#6d6d6d" stroke="#242424" stroke-width="1" stroke-dashoffset="" fill-rule="nonzero" marker-start="" marker-mid="" marker-end="" d="M302.9746529955209,132.8088214677918 L308.3289548736664,132.8088214677918 L308.3289548736664,127.45451904724644 L313.82145222698773,127.45451904724644 L313.82145222698773,132.8088214677918 L319.17575464753264,132.8088214677918 L319.17575464753264,138.3013193635149 L313.82145222698773,138.3013193635149 L313.82145222698773,143.65562124165916 L308.3289548736664,143.65562124165916 L308.3289548736664,138.3013193635149 L302.9746529955209,138.3013193635149 L302.9746529955209,132.8088214677918 z" style="color: rgb(0, 0, 0);" class="" fill-opacity="1" transform="rotate(43.92290115356445 311.07519531250006,135.5550842285156) " id="svg_25"/></g>
    <defs>
        
    <marker id="EmptyTriangleOutL" refX="0" refY="0" orient="auto" inkscape:stockid="EmptyTriangleOutL" overflow="visible">
            <path transform="scale(0.800000011920929) translate(-6,0) " d="M5.77 0l-8.65 5v-10l8.65 5z" fill-rule="evenodd" fill="#fff" stroke="#000" stroke-width="1pt" style="fill: rgb(36, 36, 36); stroke: rgb(36, 36, 36); stroke-dasharray: none;" id="svg_9"/>
        </marker></defs>
</svg>