<svg xmlns="http://www.w3.org/2000/svg" xmlns:se="http://svg-edit.googlecode.com" xmlns:xlink="http://www.w3.org/1999/xlink" xmlns:dc="http://purl.org/dc/elements/1.1/" xmlns:cc="http://creativecommons.org/ns#" xmlns:rdf="http://www.w3.org/1999/02/22-rdf-syntax-ns#" xmlns:inkscape="http://www.inkscape.org/namespaces/inkscape" width="434.48602294921875" height="478.1173095703125">
    <rect id="backgroundrect" width="100%" height="100%" x="0" y="0" fill="#FFFFFF" stroke="none" class="" style=""/>
    <g style="" class="currentLayer">
        <title>Layer 1</title>
        <rect fill="#4d4d4d" stroke="#000000" stroke-dashoffset="" fill-rule="nonzero" id="svg_1" x="46.72066116333008" y="25.32402229309082" width="15.715084075927734" height="444.3966369628906" style="color: rgb(0, 0, 0);" class="" rx="1" ry="1" fill-opacity="1"/>
        <rect fill="#4d4d4d" stroke="#000000" stroke-dashoffset="" fill-rule="nonzero" id="svg_3" x="15.681560516357422" y="49.558658599853516" width="345" height="8" style="color: rgb(77, 77, 77);" class=""/>
        <rect fill="#4d4d4d" stroke="#000000" stroke-dashoffset="" fill-rule="nonzero" id="svg_5" x="29.91061782836914" y="464.6976623535156" width="373.5474853515625" height="5.654292106628418" style="color: rgb(77, 77, 77);" class="" rx="3" ry="3"/>
        <rect fill="#4d4d4d" stroke="#000000" stroke-dashoffset="" fill-rule="nonzero" id="svg_10" x="94.68155670166016" y="98.55866241455078" width="0" height="1" style="color: rgb(77, 77, 77);" class=""/>
        <rect fill="#4d4d4d" stroke="#000000" stroke-dashoffset="" fill-rule="nonzero" id="svg_4" x="14.046241760253906" y="81.6697998046875" width="134.76536560058594" height="7.058116912841797" style="color: rgb(77, 77, 77);" class="" transform="rotate(-43.176944732666016 81.42891693115237,85.19886016845703) "/>
        <rect fill="#4d4d4d" stroke="#000000" stroke-dashoffset="" fill-rule="nonzero" id="svg_2" x="296.6815490722656" y="56.558658599853516" width="1" height="0" style="color: rgb(77, 77, 77);" class=""/>
    <rect fill="#4d4d4d" stroke="#000000" stroke-dashoffset="" fill-rule="nonzero" id="svg_6" x="299" y="57.67597579956055" width="3" height="51" style="color: rgb(0, 0, 0);" class=""/><rect fill="#4d4d4d" stroke="#000000" stroke-dashoffset="" fill-rule="nonzero" id="svg_8" x="299" y="95" width="0" height="5" style="color: rgb(0, 0, 0);" class=""/><path fill="#ffffff" fill-opacity="1" stroke="#242424" stroke-opacity="1" stroke-width="5" stroke-dasharray="none" stroke-linejoin="miter" stroke-linecap="butt" stroke-dashoffset="" fill-rule="nonzero" opacity="1" marker-start="" marker-mid="" marker-end="" d="M266.8826814889908,144.53072613477707 C266.8826814889908,126.29868193588203 282.0981511022504,111.53072613477707 300.8826814889908,111.53072613477707 C319.66721187573114,111.53072613477707 334.8826814889908,126.29868193588203 334.8826814889908,144.53072613477707 C334.8826814889908,162.7627703336721 319.66721187573114,177.53072613477707 300.8826814889908,177.53072613477707 C282.0981511022504,177.53072613477707 266.8826814889908,162.7627703336721 266.8826814889908,144.53072613477707 z" id="svg_7" class="" filter=""/><path fill="#ffffff" fill-opacity="1" stroke="#242424" stroke-opacity="1" stroke-width="1" stroke-dasharray="none" stroke-linejoin="miter" stroke-linecap="butt" stroke-dashoffset="" fill-rule="nonzero" opacity="1" marker-start="" marker-mid="" marker-end="" d="M284.18436184177096,137.66759634699025 C284.18436184177096,134.24619429226283 286.74444050645627,131.4748586279337 289.9050314505123,131.4748586279337 C293.06562239456827,131.4748586279337 295.6257010592536,134.24619429226283 295.6257010592536,137.66759634699025 C295.6257010592536,141.08899840171756 293.06562239456827,143.86033406604673 289.9050314505123,143.86033406604673 C286.74444050645627,143.86033406604673 284.18436184177096,141.08899840171756 284.18436184177096,137.66759634699025 z" id="svg_12" class=""/><path fill="#ffffff" fill-opacity="1" stroke="#242424" stroke-opacity="1" stroke-width="1" stroke-dasharray="none" stroke-linejoin="miter" stroke-linecap="butt" stroke-dashoffset="" fill-rule="nonzero" opacity="1" marker-start="" marker-mid="" marker-end="" d="M305.86033954868014,137.5558638640801 C305.86033954868014,134.13446180935267 308.42041821336545,131.36312614502356 311.5810091574215,131.36312614502356 C314.74160010147745,131.36312614502356 317.30167876616275,134.13446180935267 317.30167876616275,137.5558638640801 C317.30167876616275,140.9772659188074 314.74160010147745,143.74860158313658 311.5810091574215,143.74860158313658 C308.42041821336545,143.74860158313658 305.86033954868014,140.9772659188074 305.86033954868014,137.5558638640801 z" class="" id="svg_18"/><path fill="#b6b6b6" fill-opacity="1" stroke="#242424" stroke-opacity="1" stroke-width="1" stroke-dasharray="none" stroke-linejoin="miter" stroke-linecap="butt" stroke-dashoffset="" fill-rule="nonzero" opacity="1" marker-start="" marker-mid="" marker-end="" d="M308.3016843201752,137.9580835676279 C308.3016843201752,136.15401546024748 309.76922977817793,134.6927202932693 311.58101429423084,134.6927202932693 C313.3927988102837,134.6927202932693 314.86034426828644,136.15401546024748 314.86034426828644,137.9580835676279 C314.86034426828644,139.76215167500845 313.3927988102837,141.22344684198657 311.58101429423084,141.22344684198657 C309.76922977817793,141.22344684198657 308.3016843201752,139.76215167500845 308.3016843201752,137.9580835676279 z" id="svg_13" class=""/><path fill="#b6b6b6" fill-opacity="1" stroke="#242424" stroke-opacity="1" stroke-width="1" stroke-dasharray="none" stroke-linejoin="miter" stroke-linecap="butt" stroke-dashoffset="" fill-rule="nonzero" opacity="1" marker-start="" marker-mid="" marker-end="" d="M286.96090215464784,137.84635120392704 C286.96090215464784,136.0422830965466 288.4284476126506,134.58098792956844 290.2402321287035,134.58098792956844 C292.05201664475635,134.58098792956844 293.5195621027591,136.0422830965466 293.5195621027591,137.84635120392704 C293.5195621027591,139.6504193113076 292.05201664475635,141.1117144782857 290.2402321287035,141.1117144782857 C288.4284476126506,141.1117144782857 286.96090215464784,139.6504193113076 286.96090215464784,137.84635120392704 z" class="" id="svg_19"/><path fill="#ffffff" fill-opacity="1" stroke="#242424" stroke-opacity="1" stroke-width="1.5" stroke-dasharray="none" stroke-linejoin="miter" stroke-linecap="butt" stroke-dashoffset="" fill-rule="nonzero" opacity="1" marker-start="" marker-mid="" marker-end="" d="M294.5139694213867,159.787708828569 C294.5139694213867,158.6179196618287 297.42280920039224,157.67039043676908 301.0139694213867,157.67039043676908 C304.6051296423812,157.67039043676908 307.5139694213867,158.6179196618287 307.5139694213867,159.787708828569 C307.5139694213867,160.95749799530932 304.6051296423812,161.90502722036894 301.0139694213867,161.90502722036894 C297.42280920039224,161.90502722036894 294.5139694213867,160.95749799530932 294.5139694213867,159.787708828569 z" id="svg_20" class=""/></g>
    <defs>
        
    <marker id="EmptyTriangleOutL" refX="0" refY="0" orient="auto" inkscape:stockid="EmptyTriangleOutL" overflow="visible">
            <path transform="scale(0.800000011920929) translate(-6,0) " d="M5.77 0l-8.65 5v-10l8.65 5z" fill-rule="evenodd" fill="#fff" stroke="#000" stroke-width="1pt" style="fill: rgb(36, 36, 36); stroke: rgb(36, 36, 36); stroke-dasharray: none;" id="svg_9"/>
        </marker></defs>
</svg>